<svg width="23" height="23" viewBox="0 0 23 23" fill="none" xmlns="http://www.w3.org/2000/svg">
<path d="M22 10.9167C22.004 12.4565 21.6442 13.9756 20.95 15.35C20.1268 16.9971 18.8614 18.3824 17.2954 19.3509C15.7293 20.3193 13.9246 20.8327 12.0833 20.8334C10.5435 20.8374 9.02447 20.4776 7.65 19.7834L1 22L3.21667 15.35C2.52242 13.9756 2.16265 12.4565 2.16667 10.9167C2.16738 9.07542 2.68071 7.27069 3.64917 5.70468C4.61763 4.13866 6.00296 2.8732 7.65 2.05003C9.02447 1.35579 10.5435 0.996018 12.0833 1.00003H12.6667C15.0984 1.13419 17.3952 2.16059 19.1173 3.8827C20.8394 5.60482 21.8658 7.90163 22 10.3334V10.9167Z" stroke="black" stroke-width="2" stroke-linecap="round" stroke-linejoin="round"/>
</svg>
