<svg width="27" height="27" viewBox="0 0 27 27" fill="none" xmlns="http://www.w3.org/2000/svg">
<path fill-rule="evenodd" clip-rule="evenodd" d="M8.26355 0.533203H18.1798C22.7429 0.533203 26.4434 4.23362 26.4434 8.79676V18.713C26.4434 23.2762 22.7429 26.9766 18.1798 26.9766H8.26355C3.70042 26.9766 0 23.2762 0 18.713V8.79676C0 4.23362 3.70042 0.533203 8.26355 0.533203ZM18.18 24.4979C21.3697 24.4979 23.9645 21.9032 23.9645 18.7134V8.79718C23.9645 5.60745 21.3697 3.0127 18.18 3.0127H8.26373C5.074 3.0127 2.47925 5.60745 2.47925 8.79718V18.7134C2.47925 21.9032 5.074 24.4979 8.26373 24.4979H18.18Z" fill="white"/>
<path fill-rule="evenodd" clip-rule="evenodd" d="M6.61084 13.7554C6.61084 10.1045 9.57084 7.14453 13.2217 7.14453C16.8725 7.14453 19.8325 10.1045 19.8325 13.7554C19.8325 17.4062 16.8725 20.3662 13.2217 20.3662C9.57084 20.3662 6.61084 17.4062 6.61084 13.7554ZM9.0896 13.7558C9.0896 16.0332 10.9439 17.8876 13.2214 17.8876C15.4988 17.8876 17.3531 16.0332 17.3531 13.7558C17.3531 11.4767 15.4988 9.62402 13.2214 9.62402C10.9439 9.62402 9.0896 11.4767 9.0896 13.7558Z" fill="white"/>
<ellipse cx="20.3287" cy="6.64847" rx="0.88094" ry="0.880895" fill="white"/>
</svg>
