<svg width="33" height="25" viewBox="0 0 33 25" fill="none" xmlns="http://www.w3.org/2000/svg">
<path d="M32.6713 5.89961C32.6713 5.89961 32.349 3.62441 31.3564 2.62539C30.0996 1.31055 28.6945 1.3041 28.05 1.22676C23.4352 0.891601 16.5064 0.891602 16.5064 0.891602H16.4936C16.4936 0.891602 9.56484 0.891601 4.95 1.22676C4.30547 1.3041 2.90039 1.31055 1.64355 2.62539C0.650977 3.62441 0.335156 5.89961 0.335156 5.89961C0.335156 5.89961 0 8.57441 0 11.2428V13.7436C0 16.4119 0.328711 19.0867 0.328711 19.0867C0.328711 19.0867 0.650976 21.3619 1.63711 22.3609C2.89395 23.6758 4.54395 23.6307 5.27871 23.7725C7.92129 24.0238 16.5 24.1012 16.5 24.1012C16.5 24.1012 23.4352 24.0883 28.05 23.7596C28.6945 23.6822 30.0996 23.6758 31.3564 22.3609C32.349 21.3619 32.6713 19.0867 32.6713 19.0867C32.6713 19.0867 33 16.4184 33 13.7436V11.2428C33 8.57441 32.6713 5.89961 32.6713 5.89961ZM13.0904 16.7793V7.50449L22.0043 12.158L13.0904 16.7793Z" fill="white"/>
</svg>
