<svg width="23" height="23" viewBox="0 0 23 23" fill="none" xmlns="http://www.w3.org/2000/svg">
<path fill-rule="evenodd" clip-rule="evenodd" d="M12.1103 0.329373L17.8603 6.07937C18.1973 6.41632 18.1973 6.96142 17.8603 7.29837C17.6924 7.46857 17.4716 7.55137 17.2508 7.55137C17.03 7.55137 16.8092 7.46742 16.6413 7.29837L12.3633 3.02037V14.7389C12.3633 15.215 11.9769 15.6014 11.5008 15.6014C11.0247 15.6014 10.6383 15.215 10.6383 14.7389V3.02037L6.36033 7.29837C6.02338 7.63647 5.47942 7.63417 5.14132 7.29837C4.80322 6.96257 4.80322 6.41632 5.14132 6.07937L10.8913 0.329373C11.2271 -0.00757735 11.7734 -0.00757735 12.1103 0.329373ZM2.6358 22.7246H20.3642C21.8178 22.7246 23 21.5424 23 20.0888V13.589C23 13.1129 22.6136 12.7265 22.1375 12.7265C21.6614 12.7265 21.275 13.1129 21.275 13.589V20.0888C21.275 20.5914 20.8668 20.9996 20.3642 20.9996H2.6358C2.13325 20.9996 1.725 20.5914 1.725 20.0888V13.589C1.725 13.1129 1.3386 12.7265 0.8625 12.7265C0.3864 12.7265 0 13.1129 0 13.589V20.0888C0 21.5424 1.1822 22.7246 2.6358 22.7246Z" fill="black"/>
</svg>
