<svg width="33" height="33" viewBox="0 0 33 33" fill="none" xmlns="http://www.w3.org/2000/svg">
<path d="M32.6713 9.89961C32.6713 9.89961 32.349 7.62441 31.3564 6.62539C30.0996 5.31055 28.6945 5.3041 28.05 5.22676C23.4352 4.8916 16.5064 4.8916 16.5064 4.8916H16.4936C16.4936 4.8916 9.56484 4.8916 4.95 5.22676C4.30547 5.3041 2.90039 5.31055 1.64355 6.62539C0.650977 7.62441 0.335156 9.89961 0.335156 9.89961C0.335156 9.89961 0 12.5744 0 15.2428V17.7436C0 20.4119 0.328711 23.0867 0.328711 23.0867C0.328711 23.0867 0.650976 25.3619 1.63711 26.3609C2.89395 27.6758 4.54395 27.6307 5.27871 27.7725C7.92129 28.0238 16.5 28.1012 16.5 28.1012C16.5 28.1012 23.4352 28.0883 28.05 27.7596C28.6945 27.6822 30.0996 27.6758 31.3564 26.3609C32.349 25.3619 32.6713 23.0867 32.6713 23.0867C32.6713 23.0867 33 20.4184 33 17.7436V15.2428C33 12.5744 32.6713 9.89961 32.6713 9.89961ZM13.0904 20.7793V11.5045L22.0043 16.158L13.0904 20.7793Z" fill="white"/>
</svg>
